<?xml version="1.0" encoding="UTF-8" standalone="no"?>
<!DOCTYPE svg PUBLIC "-//W3C//DTD SVG 1.1//EN"
 "http://www.w3.org/Graphics/SVG/1.1/DTD/svg11.dtd">
<!-- Generated by graphviz version 2.26.3 (20100126.1600)
 -->
<!-- Title: models_diagram Pages: 1 -->
<svg width="916pt" height="390pt"
 viewBox="0.00 0.00 916.00 390.00" xmlns="http://www.w3.org/2000/svg" xmlns:xlink="http://www.w3.org/1999/xlink">
<g id="graph1" class="graph" transform="scale(1 1) rotate(0) translate(4 386)">
<title>models_diagram</title>
<polygon fill="white" stroke="white" points="-4,5 -4,-386 913,-386 913,5 -4,5"/>
<!-- Ator -->
<g id="node1" class="node"><title>Ator</title>
<polyline fill="none" stroke="black" points="11.5,-257 160.5,-257 "/>
<path fill="none" stroke="black" d="M160.5,-257C166.5,-257 172.5,-263 172.5,-269"/>
<polyline fill="none" stroke="black" points="172.5,-269 172.5,-369 "/>
<path fill="none" stroke="black" d="M172.5,-369C172.5,-375 166.5,-381 160.5,-381"/>
<polyline fill="none" stroke="black" points="160.5,-381 11.5,-381 "/>
<path fill="none" stroke="black" d="M11.5,-381C5.5,-381 -0.5,-375 -0.5,-369"/>
<polyline fill="none" stroke="black" points="-0.5,-369 -0.5,-269 "/>
<path fill="none" stroke="black" d="M-0.5,-269C-0.5,-263 5.5,-257 11.5,-257"/>
<text text-anchor="middle" x="86" y="-364.4" font-family="Times Roman,serif" font-size="14.00">Ator</text>
<polyline fill="none" stroke="black" points="-0.5,-355 172.5,-355 "/>
<text text-anchor="start" x="7.5" y="-338.4" font-family="Times Roman,serif" font-size="14.00">nome :string</text>
<text text-anchor="start" x="7.5" y="-320.4" font-family="Times Roman,serif" font-size="14.00">nacionalidade :string</text>
<text text-anchor="start" x="7.5" y="-302.4" font-family="Times Roman,serif" font-size="14.00">data_nascimento :date</text>
<text text-anchor="start" x="7.5" y="-284.4" font-family="Times Roman,serif" font-size="14.00">created_at :datetime</text>
<text text-anchor="start" x="7.5" y="-266.4" font-family="Times Roman,serif" font-size="14.00">updated_at :datetime</text>
</g>
<!-- Filme -->
<g id="node4" class="node"><title>Filme</title>
<polyline fill="none" stroke="black" points="201.5,-93 342.5,-93 "/>
<path fill="none" stroke="black" d="M342.5,-93C348.5,-93 354.5,-99 354.5,-105"/>
<polyline fill="none" stroke="black" points="354.5,-105 354.5,-205 "/>
<path fill="none" stroke="black" d="M354.5,-205C354.5,-211 348.5,-217 342.5,-217"/>
<polyline fill="none" stroke="black" points="342.5,-217 201.5,-217 "/>
<path fill="none" stroke="black" d="M201.5,-217C195.5,-217 189.5,-211 189.5,-205"/>
<polyline fill="none" stroke="black" points="189.5,-205 189.5,-105 "/>
<path fill="none" stroke="black" d="M189.5,-105C189.5,-99 195.5,-93 201.5,-93"/>
<text text-anchor="middle" x="272" y="-200.4" font-family="Times Roman,serif" font-size="14.00">Filme</text>
<polyline fill="none" stroke="black" points="189.5,-191 354.5,-191 "/>
<text text-anchor="start" x="197.5" y="-174.4" font-family="Times Roman,serif" font-size="14.00">titulo :string</text>
<text text-anchor="start" x="197.5" y="-156.4" font-family="Times Roman,serif" font-size="14.00">duracao :integer</text>
<text text-anchor="start" x="197.5" y="-138.4" font-family="Times Roman,serif" font-size="14.00">ano :string</text>
<text text-anchor="start" x="197.5" y="-120.4" font-family="Times Roman,serif" font-size="14.00">created_at :datetime</text>
<text text-anchor="start" x="197.5" y="-102.4" font-family="Times Roman,serif" font-size="14.00">updated_at :datetime</text>
</g>
<!-- Ator&#45;&gt;Filme -->
<g id="edge2" class="edge"><title>Ator&#45;&gt;Filme</title>
<path fill="none" stroke="black" d="M164.021,-250.207C173.951,-241.452 184.114,-232.49 194.043,-223.736"/>
<polygon fill="black" stroke="black" points="163.819,-250.385 153.343,-253.623 160.069,-253.692 156.319,-256.999 156.319,-256.999 156.319,-256.999 160.069,-253.692 159.295,-260.374 163.819,-250.385 163.819,-250.385"/>
<polygon fill="black" stroke="black" points="194.081,-223.703 204.558,-220.464 197.832,-220.396 201.582,-217.089 201.582,-217.089 201.582,-217.089 197.832,-220.396 198.606,-213.714 194.081,-223.703 194.081,-223.703"/>
</g>
<!-- Copia -->
<g id="node2" class="node"><title>Copia</title>
<polyline fill="none" stroke="black" points="573.5,-257 714.5,-257 "/>
<path fill="none" stroke="black" d="M714.5,-257C720.5,-257 726.5,-263 726.5,-269"/>
<polyline fill="none" stroke="black" points="726.5,-269 726.5,-369 "/>
<path fill="none" stroke="black" d="M726.5,-369C726.5,-375 720.5,-381 714.5,-381"/>
<polyline fill="none" stroke="black" points="714.5,-381 573.5,-381 "/>
<path fill="none" stroke="black" d="M573.5,-381C567.5,-381 561.5,-375 561.5,-369"/>
<polyline fill="none" stroke="black" points="561.5,-369 561.5,-269 "/>
<path fill="none" stroke="black" d="M561.5,-269C561.5,-263 567.5,-257 573.5,-257"/>
<text text-anchor="middle" x="644" y="-364.4" font-family="Times Roman,serif" font-size="14.00">Copia</text>
<polyline fill="none" stroke="black" points="561.5,-355 726.5,-355 "/>
<text text-anchor="start" x="569.5" y="-338.4" font-family="Times Roman,serif" font-size="14.00">aquisicao :date</text>
<text text-anchor="start" x="569.5" y="-320.4" font-family="Times Roman,serif" font-size="14.00">estado :string</text>
<text text-anchor="start" x="569.5" y="-302.4" font-family="Times Roman,serif" font-size="14.00">created_at :datetime</text>
<text text-anchor="start" x="569.5" y="-284.4" font-family="Times Roman,serif" font-size="14.00">updated_at :datetime</text>
<text text-anchor="start" x="569.5" y="-266.4" font-family="Times Roman,serif" font-size="14.00">locado :boolean</text>
</g>
<!-- Emprestimo -->
<g id="node6" class="node"><title>Emprestimo</title>
<polyline fill="none" stroke="black" points="659,-93 811,-93 "/>
<path fill="none" stroke="black" d="M811,-93C817,-93 823,-99 823,-105"/>
<polyline fill="none" stroke="black" points="823,-105 823,-205 "/>
<path fill="none" stroke="black" d="M823,-205C823,-211 817,-217 811,-217"/>
<polyline fill="none" stroke="black" points="811,-217 659,-217 "/>
<path fill="none" stroke="black" d="M659,-217C653,-217 647,-211 647,-205"/>
<polyline fill="none" stroke="black" points="647,-205 647,-105 "/>
<path fill="none" stroke="black" d="M647,-105C647,-99 653,-93 659,-93"/>
<text text-anchor="middle" x="735" y="-200.4" font-family="Times Roman,serif" font-size="14.00">Emprestimo</text>
<polyline fill="none" stroke="black" points="647,-191 823,-191 "/>
<text text-anchor="start" x="655" y="-174.4" font-family="Times Roman,serif" font-size="14.00">data_emprestimo :date</text>
<text text-anchor="start" x="655" y="-156.4" font-family="Times Roman,serif" font-size="14.00">data_devolucao :date</text>
<text text-anchor="start" x="655" y="-138.4" font-family="Times Roman,serif" font-size="14.00">valor :float</text>
<text text-anchor="start" x="655" y="-120.4" font-family="Times Roman,serif" font-size="14.00">created_at :datetime</text>
<text text-anchor="start" x="655" y="-102.4" font-family="Times Roman,serif" font-size="14.00">updated_at :datetime</text>
</g>
<!-- Copia&#45;&gt;Emprestimo -->
<g id="edge4" class="edge"><title>Copia&#45;&gt;Emprestimo</title>
<path fill="none" stroke="black" d="M683.382,-248.026C687.757,-240.142 692.208,-232.119 696.571,-224.256"/>
<polygon fill="black" stroke="black" points="683.255,-248.255 674.468,-254.815 680.829,-252.627 678.403,-256.999 678.403,-256.999 678.403,-256.999 680.829,-252.627 682.338,-259.182 683.255,-248.255 683.255,-248.255"/>
<ellipse fill="black" stroke="black" cx="698.607" cy="-220.587" rx="4.00002" ry="4.00002"/>
</g>
<!-- Socio -->
<g id="node3" class="node"><title>Socio</title>
<polyline fill="none" stroke="black" points="755.5,-257 896.5,-257 "/>
<path fill="none" stroke="black" d="M896.5,-257C902.5,-257 908.5,-263 908.5,-269"/>
<polyline fill="none" stroke="black" points="908.5,-269 908.5,-369 "/>
<path fill="none" stroke="black" d="M908.5,-369C908.5,-375 902.5,-381 896.5,-381"/>
<polyline fill="none" stroke="black" points="896.5,-381 755.5,-381 "/>
<path fill="none" stroke="black" d="M755.5,-381C749.5,-381 743.5,-375 743.5,-369"/>
<polyline fill="none" stroke="black" points="743.5,-369 743.5,-269 "/>
<path fill="none" stroke="black" d="M743.5,-269C743.5,-263 749.5,-257 755.5,-257"/>
<text text-anchor="middle" x="826" y="-364.4" font-family="Times Roman,serif" font-size="14.00">Socio</text>
<polyline fill="none" stroke="black" points="743.5,-355 908.5,-355 "/>
<text text-anchor="start" x="751.5" y="-338.4" font-family="Times Roman,serif" font-size="14.00">nome :string</text>
<text text-anchor="start" x="751.5" y="-320.4" font-family="Times Roman,serif" font-size="14.00">endereco :string</text>
<text text-anchor="start" x="751.5" y="-302.4" font-family="Times Roman,serif" font-size="14.00">telefone :string</text>
<text text-anchor="start" x="751.5" y="-284.4" font-family="Times Roman,serif" font-size="14.00">created_at :datetime</text>
<text text-anchor="start" x="751.5" y="-266.4" font-family="Times Roman,serif" font-size="14.00">updated_at :datetime</text>
</g>
<!-- Socio&#45;&gt;Emprestimo -->
<g id="edge6" class="edge"><title>Socio&#45;&gt;Emprestimo</title>
<path fill="none" stroke="black" d="M786.618,-248.026C782.243,-240.142 777.792,-232.119 773.429,-224.256"/>
<polygon fill="black" stroke="black" points="786.745,-248.255 787.662,-259.182 789.171,-252.627 791.597,-256.999 791.597,-256.999 791.597,-256.999 789.171,-252.627 795.532,-254.815 786.745,-248.255 786.745,-248.255"/>
<ellipse fill="black" stroke="black" cx="771.393" cy="-220.587" rx="4.00002" ry="4.00002"/>
</g>
<!-- Copium -->
<g id="node12" class="node"><title>Copium</title>
<ellipse fill="none" stroke="black" cx="272" cy="-19" rx="48.0833" ry="18.3848"/>
<text text-anchor="middle" x="272" y="-15.4" font-family="Times Roman,serif" font-size="14.00">Copium</text>
</g>
<!-- Filme&#45;&gt;Copium -->
<g id="edge8" class="edge"><title>Filme&#45;&gt;Copium</title>
<path fill="none" stroke="black" d="M237.143,-83.0461C236.11,-73.9005 236.759,-64.7016 240,-56 241.79,-51.1949 244.515,-46.5984 247.635,-42.3792"/>
<polygon fill="black" stroke="black" points="237.148,-83.0744 234.448,-93.7028 238.014,-87.9988 238.88,-92.9231 238.88,-92.9231 238.88,-92.9231 238.014,-87.9988 243.312,-92.1435 237.148,-83.0744 237.148,-83.0744"/>
<ellipse fill="black" stroke="black" cx="250.253" cy="-39.18" rx="4.00002" ry="4.00002"/>
<text text-anchor="middle" x="261.5" y="-61.4" font-family="Times Roman,serif" font-size="14.00">copias</text>
</g>
<!-- Filme&#45;&gt;Copium -->
<g id="edge10" class="edge"><title>Filme&#45;&gt;Copium</title>
<path fill="none" stroke="black" d="M284.316,-82.7418C284.591,-73.7257 284.257,-64.6414 283,-56 282.501,-52.5681 281.754,-49.0118 280.88,-45.5215"/>
<polygon fill="black" stroke="black" points="284.308,-82.88 279.27,-92.62 284.036,-87.8726 283.763,-92.8652 283.763,-92.8652 283.763,-92.8652 284.036,-87.8726 288.257,-93.1103 284.308,-82.88 284.308,-82.88"/>
<ellipse fill="black" stroke="black" cx="279.741" cy="-41.4401" rx="4.00001" ry="4.00001"/>
<text text-anchor="middle" x="328.5" y="-61.4" font-family="Times Roman,serif" font-size="14.00">copias_livres</text>
</g>
<!-- Genero -->
<g id="node5" class="node"><title>Genero</title>
<polyline fill="none" stroke="black" points="201.5,-275 342.5,-275 "/>
<path fill="none" stroke="black" d="M342.5,-275C348.5,-275 354.5,-281 354.5,-287"/>
<polyline fill="none" stroke="black" points="354.5,-287 354.5,-351 "/>
<path fill="none" stroke="black" d="M354.5,-351C354.5,-357 348.5,-363 342.5,-363"/>
<polyline fill="none" stroke="black" points="342.5,-363 201.5,-363 "/>
<path fill="none" stroke="black" d="M201.5,-363C195.5,-363 189.5,-357 189.5,-351"/>
<polyline fill="none" stroke="black" points="189.5,-351 189.5,-287 "/>
<path fill="none" stroke="black" d="M189.5,-287C189.5,-281 195.5,-275 201.5,-275"/>
<text text-anchor="middle" x="272" y="-346.4" font-family="Times Roman,serif" font-size="14.00">Genero</text>
<polyline fill="none" stroke="black" points="189.5,-337 354.5,-337 "/>
<text text-anchor="start" x="197.5" y="-320.4" font-family="Times Roman,serif" font-size="14.00">descricao :string</text>
<text text-anchor="start" x="197.5" y="-302.4" font-family="Times Roman,serif" font-size="14.00">created_at :datetime</text>
<text text-anchor="start" x="197.5" y="-284.4" font-family="Times Roman,serif" font-size="14.00">updated_at :datetime</text>
</g>
<!-- Genero&#45;&gt;Filme -->
<g id="edge12" class="edge"><title>Genero&#45;&gt;Filme</title>
<path fill="none" stroke="black" d="M272,-264.411C272,-251.896 272,-238.419 272,-225.346"/>
<polygon fill="black" stroke="black" points="272,-264.619 267.5,-274.619 272,-269.619 272,-274.619 272,-274.619 272,-274.619 272,-269.619 276.5,-274.619 272,-264.619 272,-264.619"/>
<ellipse fill="black" stroke="black" cx="272" cy="-221.27" rx="4" ry="4"/>
</g>
<!-- Diretor -->
<g id="node7" class="node"><title>Diretor</title>
<polyline fill="none" stroke="black" points="383.5,-257 532.5,-257 "/>
<path fill="none" stroke="black" d="M532.5,-257C538.5,-257 544.5,-263 544.5,-269"/>
<polyline fill="none" stroke="black" points="544.5,-269 544.5,-369 "/>
<path fill="none" stroke="black" d="M544.5,-369C544.5,-375 538.5,-381 532.5,-381"/>
<polyline fill="none" stroke="black" points="532.5,-381 383.5,-381 "/>
<path fill="none" stroke="black" d="M383.5,-381C377.5,-381 371.5,-375 371.5,-369"/>
<polyline fill="none" stroke="black" points="371.5,-369 371.5,-269 "/>
<path fill="none" stroke="black" d="M371.5,-269C371.5,-263 377.5,-257 383.5,-257"/>
<text text-anchor="middle" x="458" y="-364.4" font-family="Times Roman,serif" font-size="14.00">Diretor</text>
<polyline fill="none" stroke="black" points="371.5,-355 544.5,-355 "/>
<text text-anchor="start" x="379.5" y="-338.4" font-family="Times Roman,serif" font-size="14.00">nome :string</text>
<text text-anchor="start" x="379.5" y="-320.4" font-family="Times Roman,serif" font-size="14.00">nacionalidade :string</text>
<text text-anchor="start" x="379.5" y="-302.4" font-family="Times Roman,serif" font-size="14.00">data_nascimento :date</text>
<text text-anchor="start" x="379.5" y="-284.4" font-family="Times Roman,serif" font-size="14.00">created_at :datetime</text>
<text text-anchor="start" x="379.5" y="-266.4" font-family="Times Roman,serif" font-size="14.00">updated_at :datetime</text>
</g>
<!-- Diretor&#45;&gt;Filme -->
<g id="edge14" class="edge"><title>Diretor&#45;&gt;Filme</title>
<path fill="none" stroke="black" d="M379.979,-250.207C369.562,-241.023 358.889,-231.611 348.499,-222.45"/>
<polygon fill="black" stroke="black" points="380.181,-250.385 384.705,-260.374 383.931,-253.692 387.681,-256.999 387.681,-256.999 387.681,-256.999 383.931,-253.692 390.657,-253.623 380.181,-250.385 380.181,-250.385"/>
<ellipse fill="black" stroke="black" cx="345.418" cy="-219.734" rx="4.00002" ry="4.00002"/>
</g>
</g>
</svg>
